<mxfile host="app.diagrams.net" agent="Mozilla/5.0 (Windows NT 10.0; Win64; x64) AppleWebKit/537.36 (KHTML, like Gecko) Chrome/138.0.0.0 Safari/537.36 Edg/138.0.0.0" version="28.0.7">
  <diagram name="Страница — 1" id="Jow1OeaFJOFXGX1taunX">
    <mxGraphModel dx="1244" dy="716" grid="1" gridSize="10" guides="1" tooltips="1" connect="1" arrows="1" fold="1" page="1" pageScale="1" pageWidth="827" pageHeight="1169" math="0" shadow="0">
      <root>
        <mxCell id="0" />
        <mxCell id="1" parent="0" />
        <mxCell id="z3YhTsL_gDp53mxOZ--C-1" value="Название" style="swimlane;fontStyle=0;childLayout=stackLayout;horizontal=1;startSize=26;horizontalStack=0;resizeParent=1;resizeParentMax=0;resizeLast=0;collapsible=1;marginBottom=0;whiteSpace=wrap;html=1;fillColor=default;" parent="1" vertex="1">
          <mxGeometry x="40" y="320" width="140" height="100" as="geometry" />
        </mxCell>
        <mxCell id="z3YhTsL_gDp53mxOZ--C-2" value="Картинка&lt;div&gt;Цена без скидки&lt;/div&gt;&lt;div&gt;Цена со скидкой&lt;/div&gt;&lt;div&gt;В наличии&lt;/div&gt;" style="text;align=left;verticalAlign=top;spacingLeft=4;spacingRight=4;overflow=hidden;rotatable=0;points=[[0,0.5],[1,0.5]];portConstraint=eastwest;whiteSpace=wrap;html=1;fillColor=default;" parent="z3YhTsL_gDp53mxOZ--C-1" vertex="1">
          <mxGeometry y="26" width="140" height="74" as="geometry" />
        </mxCell>
        <mxCell id="z3YhTsL_gDp53mxOZ--C-5" value="Товаары" style="text;html=1;align=center;verticalAlign=middle;resizable=0;points=[];autosize=1;strokeColor=none;fillColor=none;" parent="1" vertex="1">
          <mxGeometry x="70" y="290" width="70" height="30" as="geometry" />
        </mxCell>
        <mxCell id="z3YhTsL_gDp53mxOZ--C-6" value="Название" style="swimlane;fontStyle=0;childLayout=stackLayout;horizontal=1;startSize=26;horizontalStack=0;resizeParent=1;resizeParentMax=0;resizeLast=0;collapsible=1;marginBottom=0;whiteSpace=wrap;html=1;" parent="1" vertex="1">
          <mxGeometry x="380" y="340" width="140" height="60" as="geometry" />
        </mxCell>
        <mxCell id="_3fbcZ-UaFknPs5vjPvc-3" value="" style="text;align=left;verticalAlign=top;spacingLeft=4;spacingRight=4;overflow=hidden;rotatable=0;points=[[0,0.5],[1,0.5]];portConstraint=eastwest;whiteSpace=wrap;html=1;fillColor=default;" vertex="1" parent="z3YhTsL_gDp53mxOZ--C-6">
          <mxGeometry y="26" width="140" height="34" as="geometry" />
        </mxCell>
        <mxCell id="z3YhTsL_gDp53mxOZ--C-10" value="Категория" style="text;html=1;align=center;verticalAlign=middle;resizable=0;points=[];autosize=1;strokeColor=none;fillColor=none;" parent="1" vertex="1">
          <mxGeometry x="410" y="310" width="80" height="30" as="geometry" />
        </mxCell>
        <mxCell id="z3YhTsL_gDp53mxOZ--C-13" style="edgeStyle=orthogonalEdgeStyle;rounded=0;orthogonalLoop=1;jettySize=auto;html=1;exitX=1;exitY=0.5;exitDx=0;exitDy=0;entryX=0;entryY=0.75;entryDx=0;entryDy=0;endArrow=doubleBlock;endFill=1;" parent="1" source="z3YhTsL_gDp53mxOZ--C-11" target="z3YhTsL_gDp53mxOZ--C-6" edge="1">
          <mxGeometry relative="1" as="geometry" />
        </mxCell>
        <mxCell id="z3YhTsL_gDp53mxOZ--C-11" value="Состоит из/в" style="rhombus;whiteSpace=wrap;html=1;" parent="1" vertex="1">
          <mxGeometry x="220" y="350" width="120" height="50" as="geometry" />
        </mxCell>
        <mxCell id="z3YhTsL_gDp53mxOZ--C-12" style="edgeStyle=orthogonalEdgeStyle;rounded=0;orthogonalLoop=1;jettySize=auto;html=1;exitX=0;exitY=0.5;exitDx=0;exitDy=0;entryX=0.997;entryY=0.401;entryDx=0;entryDy=0;entryPerimeter=0;endArrow=doubleBlock;endFill=1;" parent="1" source="z3YhTsL_gDp53mxOZ--C-11" target="z3YhTsL_gDp53mxOZ--C-2" edge="1">
          <mxGeometry relative="1" as="geometry" />
        </mxCell>
        <mxCell id="z3YhTsL_gDp53mxOZ--C-16" style="edgeStyle=orthogonalEdgeStyle;rounded=0;orthogonalLoop=1;jettySize=auto;html=1;exitX=0.5;exitY=1;exitDx=0;exitDy=0;entryX=0.75;entryY=1;entryDx=0;entryDy=0;endArrow=doubleBlock;endFill=1;dashed=1;dashPattern=8 8;" parent="1" source="z3YhTsL_gDp53mxOZ--C-14" target="z3YhTsL_gDp53mxOZ--C-6" edge="1">
          <mxGeometry relative="1" as="geometry">
            <Array as="points">
              <mxPoint x="610" y="420" />
              <mxPoint x="485" y="420" />
            </Array>
          </mxGeometry>
        </mxCell>
        <mxCell id="z3YhTsL_gDp53mxOZ--C-14" value="Яв-ся родителем" style="rhombus;whiteSpace=wrap;html=1;" parent="1" vertex="1">
          <mxGeometry x="550" y="342" width="120" height="50" as="geometry" />
        </mxCell>
        <mxCell id="z3YhTsL_gDp53mxOZ--C-15" style="edgeStyle=orthogonalEdgeStyle;rounded=0;orthogonalLoop=1;jettySize=auto;html=1;exitX=0.5;exitY=0;exitDx=0;exitDy=0;entryX=0.906;entryY=0.004;entryDx=0;entryDy=0;entryPerimeter=0;dashed=1;dashPattern=8 8;" parent="1" source="z3YhTsL_gDp53mxOZ--C-14" target="z3YhTsL_gDp53mxOZ--C-6" edge="1">
          <mxGeometry relative="1" as="geometry" />
        </mxCell>
        <mxCell id="z3YhTsL_gDp53mxOZ--C-34" style="edgeStyle=orthogonalEdgeStyle;rounded=0;orthogonalLoop=1;jettySize=auto;html=1;exitX=1;exitY=0.5;exitDx=0;exitDy=0;entryX=0;entryY=0.5;entryDx=0;entryDy=0;endArrow=none;endFill=0;" parent="1" source="z3YhTsL_gDp53mxOZ--C-17" target="z3YhTsL_gDp53mxOZ--C-30" edge="1">
          <mxGeometry relative="1" as="geometry" />
        </mxCell>
        <mxCell id="z3YhTsL_gDp53mxOZ--C-17" value="ProductId (с другой стороны Name тож уникальное)" style="swimlane;fontStyle=0;childLayout=stackLayout;horizontal=1;startSize=60;horizontalStack=0;resizeParent=1;resizeParentMax=0;resizeLast=0;collapsible=1;marginBottom=0;whiteSpace=wrap;html=1;" parent="1" vertex="1">
          <mxGeometry x="20" y="480" width="140" height="170" as="geometry" />
        </mxCell>
        <mxCell id="z3YhTsL_gDp53mxOZ--C-18" value="Name (uniq)&lt;div&gt;Image&lt;/div&gt;&lt;div&gt;PriceWithDiscount&lt;/div&gt;&lt;div&gt;PriceWithoutDiscount&lt;/div&gt;&lt;div&gt;InStock (тут тоже надо думать, как это сделать. Ну, это бул)&lt;/div&gt;" style="text;align=left;verticalAlign=top;spacingLeft=4;spacingRight=4;overflow=hidden;rotatable=0;points=[[0,0.5],[1,0.5]];portConstraint=eastwest;whiteSpace=wrap;html=1;fillColor=default;" parent="z3YhTsL_gDp53mxOZ--C-17" vertex="1">
          <mxGeometry y="60" width="140" height="110" as="geometry" />
        </mxCell>
        <mxCell id="z3YhTsL_gDp53mxOZ--C-19" value="Products" style="text;html=1;align=center;verticalAlign=middle;resizable=0;points=[];autosize=1;strokeColor=none;fillColor=none;" parent="1" vertex="1">
          <mxGeometry x="50" y="450" width="70" height="30" as="geometry" />
        </mxCell>
        <mxCell id="z3YhTsL_gDp53mxOZ--C-33" style="edgeStyle=orthogonalEdgeStyle;rounded=0;orthogonalLoop=1;jettySize=auto;html=1;exitX=0;exitY=0.5;exitDx=0;exitDy=0;entryX=1;entryY=0.5;entryDx=0;entryDy=0;endArrow=none;endFill=0;" parent="1" source="z3YhTsL_gDp53mxOZ--C-20" target="z3YhTsL_gDp53mxOZ--C-30" edge="1">
          <mxGeometry relative="1" as="geometry" />
        </mxCell>
        <mxCell id="z3YhTsL_gDp53mxOZ--C-20" value="CategoryId (с другой стороны Name тож уникальное)" style="swimlane;fontStyle=0;childLayout=stackLayout;horizontal=1;startSize=60;fillColor=default;horizontalStack=0;resizeParent=1;resizeParentMax=0;resizeLast=0;collapsible=1;marginBottom=0;whiteSpace=wrap;html=1;" parent="1" vertex="1">
          <mxGeometry x="470" y="530" width="140" height="100" as="geometry" />
        </mxCell>
        <mxCell id="z3YhTsL_gDp53mxOZ--C-29" value="Name (uniq)&lt;div&gt;ParentId (FK, null)&lt;/div&gt;" style="text;strokeColor=none;fillColor=default;align=left;verticalAlign=top;spacingLeft=4;spacingRight=4;overflow=hidden;rotatable=0;points=[[0,0.5],[1,0.5]];portConstraint=eastwest;whiteSpace=wrap;html=1;" parent="z3YhTsL_gDp53mxOZ--C-20" vertex="1">
          <mxGeometry y="60" width="140" height="40" as="geometry" />
        </mxCell>
        <mxCell id="z3YhTsL_gDp53mxOZ--C-39" style="edgeStyle=orthogonalEdgeStyle;rounded=0;orthogonalLoop=1;jettySize=auto;html=1;exitX=1;exitY=0.25;exitDx=0;exitDy=0;entryX=1;entryY=0.5;entryDx=0;entryDy=0;endArrow=none;endFill=0;" parent="z3YhTsL_gDp53mxOZ--C-20" source="z3YhTsL_gDp53mxOZ--C-20" target="z3YhTsL_gDp53mxOZ--C-29" edge="1">
          <mxGeometry relative="1" as="geometry" />
        </mxCell>
        <mxCell id="z3YhTsL_gDp53mxOZ--C-21" value="Category" style="text;html=1;align=center;verticalAlign=middle;resizable=0;points=[];autosize=1;strokeColor=none;fillColor=none;" parent="1" vertex="1">
          <mxGeometry x="505" y="500" width="70" height="30" as="geometry" />
        </mxCell>
        <mxCell id="z3YhTsL_gDp53mxOZ--C-30" value="ProductId (FK)&lt;div&gt;CategoryId (FK)&lt;/div&gt;" style="swimlane;fontStyle=0;childLayout=stackLayout;horizontal=1;startSize=60;fillColor=default;horizontalStack=0;resizeParent=1;resizeParentMax=0;resizeLast=0;collapsible=1;marginBottom=0;whiteSpace=wrap;html=1;" parent="1" vertex="1">
          <mxGeometry x="240" y="545" width="140" height="70" as="geometry" />
        </mxCell>
        <mxCell id="_3fbcZ-UaFknPs5vjPvc-4" value="" style="text;align=left;verticalAlign=top;spacingLeft=4;spacingRight=4;overflow=hidden;rotatable=0;points=[[0,0.5],[1,0.5]];portConstraint=eastwest;whiteSpace=wrap;html=1;fillColor=default;" vertex="1" parent="z3YhTsL_gDp53mxOZ--C-30">
          <mxGeometry y="60" width="140" height="10" as="geometry" />
        </mxCell>
        <mxCell id="z3YhTsL_gDp53mxOZ--C-32" value="ProductsCategory_ref" style="text;html=1;align=center;verticalAlign=middle;resizable=0;points=[];autosize=1;strokeColor=none;fillColor=none;" parent="1" vertex="1">
          <mxGeometry x="240" y="515" width="140" height="30" as="geometry" />
        </mxCell>
        <mxCell id="z3YhTsL_gDp53mxOZ--C-35" value="1" style="text;html=1;align=center;verticalAlign=middle;resizable=0;points=[];autosize=1;strokeColor=none;fillColor=none;" parent="1" vertex="1">
          <mxGeometry x="160" y="538" width="30" height="30" as="geometry" />
        </mxCell>
        <mxCell id="z3YhTsL_gDp53mxOZ--C-36" value="*" style="text;html=1;align=center;verticalAlign=middle;resizable=0;points=[];autosize=1;strokeColor=none;fillColor=none;" parent="1" vertex="1">
          <mxGeometry x="215" y="558" width="30" height="30" as="geometry" />
        </mxCell>
        <mxCell id="z3YhTsL_gDp53mxOZ--C-37" value="1" style="text;html=1;align=center;verticalAlign=middle;resizable=0;points=[];autosize=1;strokeColor=none;fillColor=none;" parent="1" vertex="1">
          <mxGeometry x="440" y="550" width="30" height="30" as="geometry" />
        </mxCell>
        <mxCell id="z3YhTsL_gDp53mxOZ--C-38" value="*" style="text;html=1;align=center;verticalAlign=middle;resizable=0;points=[];autosize=1;strokeColor=none;fillColor=none;" parent="1" vertex="1">
          <mxGeometry x="379" y="555" width="30" height="30" as="geometry" />
        </mxCell>
        <mxCell id="z3YhTsL_gDp53mxOZ--C-40" value="0" style="text;html=1;align=center;verticalAlign=middle;resizable=0;points=[];autosize=1;strokeColor=none;fillColor=none;" parent="1" vertex="1">
          <mxGeometry x="610" y="528" width="30" height="30" as="geometry" />
        </mxCell>
        <mxCell id="z3YhTsL_gDp53mxOZ--C-41" value="*" style="text;html=1;align=center;verticalAlign=middle;resizable=0;points=[];autosize=1;strokeColor=none;fillColor=none;" parent="1" vertex="1">
          <mxGeometry x="610" y="610" width="30" height="30" as="geometry" />
        </mxCell>
        <mxCell id="z3YhTsL_gDp53mxOZ--C-42" value="Это одно и то же, но в разных нотациях" style="text;html=1;align=center;verticalAlign=middle;resizable=0;points=[];autosize=1;strokeColor=none;fillColor=none;" parent="1" vertex="1">
          <mxGeometry x="210" y="250" width="250" height="30" as="geometry" />
        </mxCell>
      </root>
    </mxGraphModel>
  </diagram>
</mxfile>
